<svg id="earth" xmlns="http://www.w3.org/2000/svg" width="117.65" height="117.65" viewBox="0 0 117.65 117.65">
  <g id="Group_5" data-name="Group 5">
    <path id="Path_28" data-name="Path 28" d="M83.722,5.589A58.826,58.826,0,0,1,34.843,97.144,58.486,58.486,0,0,1,11.03,92.1,58.826,58.826,0,1,0,83.723,5.58Z" transform="translate(-1.085 -0.549)" fill="#336cb5"/>
    <path id="Path_29" data-name="Path 29" d="M92.592,37.771A58.565,58.565,0,0,0,82.647,5.04a58.825,58.825,0,0,0-72.7,86.515A58.816,58.816,0,0,0,92.583,37.771Z" fill="#4ac2f0"/>
  </g>
  <path id="Path_30" data-name="Path 30" d="M46.086,28.662C38.206,30.438,31.912,49.22,22.273,49.22S5.98,49.148,5.98,41.069,19.649,15.75,29.288,15.75,76.878,21.728,46.086,28.662Z" transform="translate(-0.588 -1.549)" fill="#1dad4b"/>
  <path id="Path_31" data-name="Path 31" d="M75.289,105.29c6.952-2.011,11.55-19.007,20.179-19.539s33.172-39.746,19.62,7.538c-1.975,6.9-15.419,21.974-24.057,22.515s-42.91-2.642-15.743-10.5Z" transform="translate(-6.392 -6.882)" fill="#0d5543"/>
  <path id="Path_32" data-name="Path 32" d="M48.248,77.361c-7.881,1.776-5.293,25.193-14.932,25.193S19.9,100.038,19.9,91.959,19.638,72.97,29.277,72.97s49.763-2.552,18.971,4.391Z" transform="translate(-1.957 -7.13)" fill="#1dad4b"/>
  <path id="Path_33" data-name="Path 33" d="M83.962,53.627c-1.551,3.526-11.55-15.833-6.943-24.309s5.69-8,12.786-4.139S101.427,30,96.819,38.47s.523-15.283-12.858,15.148Z" transform="translate(-7.455 -2.214)" fill="#1dad4b"/>
</svg>
