<svg id="jupiter" xmlns="http://www.w3.org/2000/svg" width="186.104" height="186.09" viewBox="0 0 186.104 186.09">
  <g id="Group_6" data-name="Group 6" transform="translate(0)">
    <path id="Path_34" data-name="Path 34" d="M138.342,9.3A93.058,93.058,0,0,1,6.62,129.992,93.047,93.047,0,1,0,138.357,9.314Z" transform="translate(2.975 4.18)" fill="#e97c27"/>
    <path id="Path_35" data-name="Path 35" d="M150.9,54.614a92.575,92.575,0,0,0-9.581-41.134A93.058,93.058,0,0,0,9.581,134.172a93.062,93.062,0,0,0,141.3-79.558Z" transform="translate(0)" fill="#fbae3f"/>
  </g>
  <rect id="Rectangle_3" data-name="Rectangle 3" width="112.257" height="13.349" transform="translate(46.729 37.018)" fill="#e97c27"/>
  <rect id="Rectangle_4" data-name="Rectangle 4" width="88.255" height="9.914" transform="translate(19.9 60.484)" fill="#e97c27"/>
  <rect id="Rectangle_5" data-name="Rectangle 5" width="112.257" height="13.349" transform="translate(52.019 86.443)" fill="#e97c27"/>
  <rect id="Rectangle_6" data-name="Rectangle 6" width="112.257" height="13.349" transform="translate(57.339 115.837)" fill="#e97c27"/>
</svg>
