<svg id="saturn" xmlns="http://www.w3.org/2000/svg" width="260.991" height="118.804" viewBox="0 0 260.991 118.804">
  <path id="Path_5" data-name="Path 5" d="M78.308,63.692A59.318,59.318,0,0,1,81.762,43.72C47.336,56.65,24.957,71.582,27.508,81.734,29.862,91.076,52.719,94,84.746,90.589c-.054-.1-.108-.2-.162-.307A59.149,59.149,0,0,1,78.3,63.692Z" transform="translate(-2.688 -4.29)" fill="none"/>
  <path id="Path_6" data-name="Path 6" d="M213.521,58.2c24.85-11.127,39.89-22.839,37.771-31.27-2.326-9.242-24.715-12.2-56.192-8.963A59.247,59.247,0,0,1,213.521,58.2Z" transform="translate(-19.187 -1.634)" fill="none"/>
  <path id="Path_7" data-name="Path 7" d="M184.778,10.2a59.124,59.124,0,0,0-9.648-5.13,56.652,56.652,0,0,1,4.148,5.924c1.848-.28,3.688-.55,5.5-.793Z" transform="translate(-17.224 -0.49)" fill="#9da28e"/>
  <path id="Path_8" data-name="Path 8" d="M187.929,41.5a56.073,56.073,0,0,1-8.079,29.07,321.45,321.45,0,0,0,32.181-12.227A59.187,59.187,0,0,0,193.609,18.11q-4.977.514-10.234,1.226a55.968,55.968,0,0,1,4.553,22.154Z" transform="translate(-17.688 -1.772)" fill="#9da28e"/>
  <path id="Path_9" data-name="Path 9" d="M91,95.667l.252-.027c-.135-.09-.28-.18-.415-.28C90.894,95.459,90.948,95.558,91,95.667Z" transform="translate(-8.935 -9.368)" fill="#9da28e"/>
  <path id="Path_10" data-name="Path 10" d="M105.96,112.34a59.38,59.38,0,0,0,95.649-25.03,426.393,426.393,0,0,1-51.116,16.2,437.04,437.04,0,0,1-44.524,8.827Z" transform="translate(-10.422 -8.576)" fill="#9da28e"/>
  <path id="Path_11" data-name="Path 11" d="M82.07,89.562c-32.036,3.408-54.894.487-57.238-8.854C22.281,70.555,44.651,55.623,79.086,42.693a59.038,59.038,0,0,1,4.337-9.413C31.234,51.458-3.958,75.722.361,92.88c4.148,16.5,43.623,21.514,95.18,14.147A59.65,59.65,0,0,1,82.07,89.562Z" transform="translate(-0.003 -3.263)" fill="#f28920"/>
  <path id="Path_12" data-name="Path 12" d="M278.909,24.877C274.816,8.6,236.359,3.507,185.83,10.441a60.059,60.059,0,0,1,8.367,6.627c31.477-3.237,53.866-.271,56.192,8.963,2.119,8.422-12.921,20.134-37.771,31.27.045.938.072,1.884.072,2.831a59.343,59.343,0,0,1-3.228,19.323c44.56-17.438,73.378-38.952,69.446-54.569Z" transform="translate(-18.276 -0.721)" fill="#f28920"/>
  <path id="Path_13" data-name="Path 13" d="M203.287,62.73a323.674,323.674,0,0,1-32.181,12.227A56.257,56.257,0,0,1,91.272,92.431l-.252.027a59.768,59.768,0,0,0,13.471,17.465,437.042,437.042,0,0,0,44.524-8.827,427.505,427.505,0,0,0,51.116-16.2,59.3,59.3,0,0,0,3.228-19.323c0-.947-.027-1.894-.072-2.831Z" transform="translate(-8.953 -6.159)" fill="#f28920"/>
  <path id="Path_14" data-name="Path 14" d="M183.364,18.624q5.261-.717,10.234-1.226a59.4,59.4,0,0,0-8.367-6.627q-2.732.379-5.5.793A56.073,56.073,0,0,1,183.364,18.624Z" transform="translate(-17.676 -1.05)" fill="#9da28e"/>
  <path id="Path_15" data-name="Path 15" d="M173.937,19.48c-9.332,1.271-19.3,3.03-29.638,5.275.018.252.036.5.036.757a11.545,11.545,0,0,1-22.118,4.644c-12.533,3.408-24.282,7.2-34.9,11.19a59.43,59.43,0,0,0,2.831,46.562c.135.09.28.18.415.28a388.026,388.026,0,0,0,52.5-9.639c9.549-2.4,18.71-5.04,27.339-7.836a56.267,56.267,0,0,0,3.526-51.224Z" transform="translate(-8.249 -1.906)" fill="#dce9cf"/>
  <path id="Path_16" data-name="Path 16" d="M133.643,12.045a11.522,11.522,0,0,1,8.62,3.877c9.909-2.209,19.584-4.012,28.889-5.428A55.326,55.326,0,0,0,167,4.57,59.417,59.417,0,0,0,92.5,30c9.468-3.3,19.494-6.393,29.944-9.206a11.546,11.546,0,0,1,11.19-8.755Z" transform="translate(-9.099 0.01)" fill="#dce9cf"/>
  <path id="Path_17" data-name="Path 17" d="M180.213,18.71a57.294,57.294,0,0,0-3.634-7.06c-9.305,1.416-18.98,3.219-28.889,5.428a11.5,11.5,0,0,1,2.894,6.916c10.342-2.245,20.306-4,29.638-5.275Z" transform="translate(-14.525 -1.137)" fill="#dce9cf"/>
  <path id="Path_18" data-name="Path 18" d="M91.3,93.764A56.257,56.257,0,0,0,171.134,76.29c-8.629,2.8-17.79,5.437-27.339,7.835a389.438,389.438,0,0,1-52.5,9.639Z" transform="translate(-8.981 -7.493)" fill="#f28920"/>
  <path id="Path_19" data-name="Path 19" d="M122.6,30.509a11.541,11.541,0,0,1-.974-4.644,11.926,11.926,0,0,1,.352-2.8c-10.45,2.813-20.477,5.915-29.944,9.206A59.037,59.037,0,0,0,87.7,41.689c10.613-3.985,22.37-7.781,34.9-11.19Z" transform="translate(-8.627 -2.259)" fill="#dce9cf"/>
  <path id="Path_20" data-name="Path 20" d="M136.978,37.638a11.55,11.55,0,0,0,11.55-11.55c0-.252-.018-.5-.036-.757q-6.871,1.488-13.94,3.264c-2.75.694-5.464,1.4-8.142,2.128a11.537,11.537,0,0,0,10.568,6.907Z" transform="translate(-12.433 -2.482)" fill="#fff"/>
  <path id="Path_21" data-name="Path 21" d="M145.53,17.247a11.525,11.525,0,0,0-19.81,4.878q3.746-1.014,7.574-1.975Q139.461,18.6,145.53,17.247Z" transform="translate(-12.365 -1.306)" fill="#fff"/>
  <path id="Path_22" data-name="Path 22" d="M148.376,24.576a11.5,11.5,0,0,0-2.894-6.916q-6.059,1.353-12.236,2.9c-2.552.64-5.067,1.3-7.574,1.975a11.413,11.413,0,0,0-.352,2.8,11.573,11.573,0,0,0,.974,4.644q4.017-1.1,8.142-2.128,7.06-1.772,13.94-3.264Z" transform="translate(-12.326 -1.728)" fill="#fff"/>
</svg>
