<?xml version="1.0" encoding="UTF-8"?>
<svg id="Layer_1" data-name="Layer 1" xmlns="http://www.w3.org/2000/svg" width="300" height="300" viewBox="0 0 300 300">
  <defs>
    <style>
      .cls-1 {
        fill: #fff;
      }

      .cls-2 {
        fill: #fae127;
      }

      .cls-3 {
        fill: #f79b1d;
      }
    </style>
  </defs>
  <g>
    <path class="cls-3" d="m245.75,34.54c5.35,16.19,8.25,33.48,8.25,51.46,0,90.57-73.43,164-164,164-21.71,0-42.43-4.23-61.39-11.89,27.27,37.5,71.48,61.89,121.39,61.89,82.84,0,150-67.16,150-150,0-46.44-21.11-87.95-54.25-115.46Z"/>
    <path class="cls-2" d="m254,86c0-17.98-2.9-35.27-8.25-51.46C219.77,12.97,186.4,0,150,0,67.16,0,0,67.16,0,150c0,32.93,10.62,63.37,28.61,88.11,18.96,7.66,39.68,11.89,61.39,11.89,90.57,0,164-73.43,164-164Z"/>
  </g>
  <circle class="cls-1" cx="111.77" cy="43.47" r="18.72"/>
  <circle class="cls-1" cx="70.74" cy="70.87" r="13.79"/>
</svg>