<?xml version="1.0" encoding="UTF-8"?>
<svg xmlns="http://www.w3.org/2000/svg" width="277.48" height="266.49" viewBox="0 0 277.48 266.49">
  <defs>
    <style>
      .cls-1 {
        fill: #fff;
      }

      .cls-2 {
        stroke: #ef4136;
      }

      .cls-2, .cls-3, .cls-4 {
        fill: none;
        stroke-miterlimit: 10;
      }

      .cls-3 {
        stroke-width: 3px;
      }

      .cls-3, .cls-4 {
        stroke: #231f20;
      }

      .cls-5 {
        fill: #fae127;
      }

      .cls-4 {
        stroke-width: 4px;
      }

      .cls-6 {
        fill: #ed1c24;
      }

      .cls-7 {
        fill: #f79b1d;
      }

      .cls-8 {
        fill: #00a651;
      }

      .cls-9 {
        fill: #ef4136;
      }

      .cls-10 {
        fill: #ece70e;
      }

      .cls-11 {
        fill: #231f20;
      }
    </style>
  </defs>
  <g id="sun">
    <g id="sun-2" data-name="sun">
      <g>
        <path class="cls-7" d="m218.41,30.57c4.75,14.38,7.33,29.76,7.33,45.73,0,80.5-65.25,145.75-145.75,145.75-19.29,0-37.71-3.76-54.56-10.57,24.23,33.33,63.53,55,107.89,55,73.62,0,133.31-59.68,133.31-133.31,0-41.27-18.76-78.16-48.21-102.61Z"/>
        <path class="cls-5" d="m225.74,76.43c0-15.98-2.58-31.35-7.33-45.73C195.32,11.53,165.66,0,133.31,0,59.68,0,0,59.68,0,133.31c0,29.26,9.44,56.32,25.42,78.3,16.85,6.81,35.27,10.57,54.56,10.57,80.5,0,145.75-65.25,145.75-145.75Z"/>
      </g>
      <circle class="cls-1" cx="99.33" cy="38.5" r="16.64"/>
      <circle class="cls-1" cx="62.87" cy="62.86" r="12.25"/>
    </g>
    <g id="Layer_2_copy" data-name="Layer 2 copy">
      <path class="cls-11" d="m95.85,213.83c-.77.83-1.63,1.58-2.49,2.31-.43.37-.87.72-1.31,1.08-.12.1-.25.19-.37.29.56-.44.1-.08-.01,0-.32.24-.65.49-.97.72-1.35.98-2.75,1.9-4.18,2.75-7.76,4.64-16.54,7.31-25.75,7.43-7.13.09-14.1-1.37-20.76-3.86-1.26-.47-2.74.53-3.08,1.75-.38,1.4.48,2.6,1.75,3.08,11.59,4.33,24.28,5.35,36.26,2.01,7.71-2.15,14.92-5.96,21.12-11.01,1.16-.94,2.31-1.92,3.33-3.01,2.19-2.35-1.34-5.9-3.54-3.54h0Z"/>
      <path class="cls-9" d="m11.54,173c5.03-2.1,10.96-.24,15.59,4.26l-23.31,7.1c.72-5.25,3.42-9.56,7.72-11.36Z"/>
      <path class="cls-9" d="m34.23,190.41l-1.25-4.19c.54,1.39.96,2.8,1.25,4.19Z"/>
      <path class="cls-9" d="m33.64,201.98c-1.27,3.49-3.59,6.24-6.8,7.58-4.56,1.91-9.87.55-14.27-3.08l21.07-4.5Z"/>
      <path class="cls-10" d="m5.62,196.96c-1.8-4.3-2.34-8.71-1.81-12.61l23.31-7.1c2.27,2.2,4.24,5.03,5.63,8.35.09.21.15.41.23.62l1.25,4.19c.87,4.17.63,8.21-.59,11.57l-21.07,4.5c-2.83-2.33-5.29-5.58-6.94-9.53Z"/>
      <path class="cls-2" d="m33.28,202.06s.47-16.45-9.64-23.74c0,0,5.75,20.53,1.68,25.45,0,0-10.81-14.48-12.57-22.13,0,0-3.57,13.93,3.9,23.58l.87.99s-7.51-1.73-13.71-21.84"/>
      <circle class="cls-8" cx="19.53" cy="183.92" r="1.51"/>
      <circle class="cls-8" cx="19.87" cy="201.41" r="1.28"/>
      <circle class="cls-8" cx="8.21" cy="186.29" r="1.34"/>
      <circle class="cls-8" cx="11.45" cy="204.37" r=".77"/>
      <circle class="cls-8" cx="30.52" cy="199.79" r="1.36"/>
      <circle class="cls-8" cx="28.47" cy="179.93" r=".88"/>
      <path class="cls-9" d="m38.18,236.18c.12-.05,1.08-1.53.95-2.15-.56-2.55-4.8-9.59-8.2-17.73-4.23-10.1-8.13-18.08-8.73-17.83s2.35,8.64,6.57,18.74c3.6,8.59,7.61,18,7.63,18.03.41.62,1.7.99,1.78.95Z"/>
      <path d="m29.52,218.97c-.21.4-.4.81-.57,1.23-.46,1.06-.89,2.14-1.15,3.27-.29,1.27-.47,2.75-.04,4.01.35,1.01.9,1.77,1.77,2.39.73.52,1.61.7,2.48.78,1,.09,2.06-.11,3.02-.37,1.44-.39,2.82-1,4.16-1.63.54-.25,1-.94,1.15-1.49.16-.6.09-1.4-.25-1.93s-.86-1-1.49-1.15c-.69-.16-1.29-.05-1.93.25-.4.19-.8.37-1.2.54l.6-.25c-1.14.48-2.32.92-3.55,1.08l.66-.09c-.43.06-.86.08-1.28.02l.66.09c-.23-.03-.45-.09-.66-.17l.6.25c-.16-.07-.3-.15-.44-.25l.51.39c-.12-.09-.22-.2-.31-.31l.39.51c-.1-.13-.18-.28-.25-.43l.25.6c-.09-.23-.15-.46-.19-.7l.09.66c-.06-.46-.04-.92.02-1.37l-.09.66c.16-1.16.55-2.28,1-3.36l-.25.6c.19-.44.38-.88.61-1.31.31-.59.43-1.27.25-1.93-.16-.58-.61-1.21-1.15-1.49-1.16-.61-2.77-.34-3.42.9h0Z"/>
    </g>
    <path class="cls-3" d="m132.32,166.26c2.42,6.92,8.32,11.85,15.15,12.6.71.08,11.05,1.03,15.87-7.1,2.92-4.92,2.7-11.27-.55-16.39"/>
    <ellipse class="cls-6" cx="211.68" cy="112.82" rx="17.87" ry="8.17" transform="translate(-26.22 82.13) rotate(-20.7)"/>
    <ellipse class="cls-6" cx="71.43" cy="167.15" rx="17.87" ry="8.17" transform="translate(-54.48 36.05) rotate(-20.7)"/>
    <circle class="cls-11" cx="157.55" cy="96.39" r="21.28"/>
    <circle class="cls-11" cx="99.33" cy="121.2" r="21.28"/>
    <path class="cls-4" d="m195.61,15.43l-25.63,73.19-12.43,7.77c-33.87-5.17-56.34,26.27-56.34,26.27L.17,126.58"/>
  </g>
  <g id="Layer_2" data-name="Layer 2">
    <path class="cls-11" d="m239.33,131.63c3.98-1.71,7.66-4.42,10.98-7.16,7.66-6.33,13.56-14.63,17.01-23.95,2.61-7.05,3.67-14.62,3.55-22.11-.05-3.21-5.05-3.22-5,0,.18,11.74-2.86,22.99-9.64,32.5-1.2,1.68-2.51,3.28-4.13,5.02-1.37,1.47-2.82,2.87-4.34,4.18-.71.61-1.43,1.2-2.16,1.78-.38.3.31-.23-.07.05-.17.12-.33.25-.5.37-.34.25-.69.51-1.04.75-1.11.79-2.25,1.54-3.42,2.24s-2.46,1.44-3.76,2-1.52,2.36-.9,3.42c.75,1.28,2.17,1.43,3.42.9h0Z"/>
    <path class="cls-9" d="m226.87,34.07c-3.67,4.03-3.91,10.24-1.23,16.12l14.52-19.57c-5.19-1.08-10.15,0-13.29,3.45Z"/>
    <path class="cls-9" d="m235.64,61.3l-3.52-2.58c1.13.98,2.31,1.84,3.52,2.58Z"/>
    <path class="cls-9" d="m246.74,64.63c3.71-.02,7.08-1.28,9.43-3.86,3.33-3.66,3.83-9.11,1.9-14.48l-11.32,18.33Z"/>
    <path class="cls-10" d="m251.43,36.56c-3.45-3.14-7.42-5.13-11.27-5.94l-14.52,19.57c1.31,2.88,3.31,5.68,5.97,8.1.16.15.34.28.51.43l3.52,2.58c3.63,2.22,7.53,3.35,11.1,3.33l11.32-18.33c-1.24-3.45-3.48-6.86-6.64-9.74Z"/>
    <path class="cls-2" d="m246.93,64.32s-15.65-5.09-19.12-17.06c0,0,17.4,12.32,23.4,10.13,0,0-10-15.05-16.62-19.28,0,0,14.32,1.32,20.9,11.6l.64,1.15s.89-7.66-15.97-20.25"/>
    <circle class="cls-8" cx="234.47" cy="45.28" r="1.51"/>
    <circle class="cls-8" cx="250.83" cy="51.47" r="1.28"/>
    <circle class="cls-8" cx="240.51" cy="35.41" r="1.34"/>
    <circle class="cls-8" cx="256.45" cy="44.53" r=".77"/>
    <circle class="cls-8" cx="245.72" cy="60.96" r="1.36"/>
    <circle class="cls-8" cx="227.71" cy="52.35" r=".88"/>
    <path class="cls-9" d="m277.43,80.41c-.08.09-1.81.5-2.34.17-2.21-1.38-7.42-7.74-13.95-13.69-8.09-7.37-14.3-13.74-13.86-14.22s7.35,5.11,15.44,12.49c6.88,6.27,14.39,13.22,14.41,13.24.45.6.36,1.94.3,2Z"/>
    <path d="m265.25,71.33s.03,0,.05,0l-.66.09c1.4-.19,2.86-.24,4.26-.05l-.66-.09c.57.08,1.13.2,1.66.42l-.6-.25c.25.11.48.23.69.4l-.51-.39c.15.12.28.24.4.39l-.39-.51c.09.12.16.24.22.38l-.25-.6c.06.15.11.31.13.48l-.09-.66c.03.2.02.4,0,.61l.09-.66c-.05.36-.16.7-.3,1.04l.25-.6c-.32.74-.78,1.42-1.27,2.06l.39-.51c-.63.81-1.33,1.56-2.05,2.28-.92.93-1,2.62,0,3.54s2.55.99,3.54,0c1.65-1.65,3.25-3.48,4.06-5.7.61-1.67.3-3.56-.94-4.85-.9-.93-2.22-1.45-3.47-1.65-1.18-.19-2.36-.27-3.56-.21-.78.04-1.54.12-2.31.23-.58.08-1.21.67-1.49,1.15-.31.54-.45,1.33-.25,1.93s.57,1.19,1.15,1.49c.63.34,1.22.35,1.93.25h0Z"/>
  </g>
</svg>