<svg id="venus" xmlns="http://www.w3.org/2000/svg" width="101.433" height="101.433" viewBox="0 0 101.433 101.433">
  <g id="Group_9" data-name="Group 9">
    <path id="Path_40" data-name="Path 40" d="M73.945,4.69A50.712,50.712,0,0,1,27.44,75.635,50.5,50.5,0,0,1,3.21,69.483,50.716,50.716,0,1,0,73.959,4.7Z" transform="translate(1.001 1.463)" fill="#d93533"/>
    <path id="Path_41" data-name="Path 41" d="M79.144,26.381A50.523,50.523,0,0,0,74.933,6.153,50.715,50.715,0,0,0,4.211,70.945,50.731,50.731,0,0,0,79.158,26.381Z" fill="#f15f4e"/>
  </g>
  <circle id="Ellipse_21" data-name="Ellipse 21" cx="7.792" cy="7.792" r="7.792" transform="translate(31.786 8.908)" fill="#d93533"/>
  <circle id="Ellipse_22" data-name="Ellipse 22" cx="10.797" cy="10.797" r="10.797" transform="translate(31.773 42.99)" fill="#d93533"/>
  <circle id="Ellipse_23" data-name="Ellipse 23" cx="7.792" cy="7.792" r="7.792" transform="translate(9.34 27.733)" fill="#d93533"/>
  <circle id="Ellipse_24" data-name="Ellipse 24" cx="6.651" cy="6.651" r="6.651" transform="translate(57.656 11.571)" fill="#d93533"/>
  <circle id="Ellipse_25" data-name="Ellipse 25" cx="7.792" cy="7.792" r="7.792" transform="translate(49.851 27.733)" fill="#d93533"/>
</svg>
